<svg width="100" height="100" fill="#fff" version="1.1" viewBox="0 0 100 100" xmlns="http://www.w3.org/2000/svg">
 <path d="m75.93 39.66-21.8 12.73v25.51l21.8-12.73z"/>
 <path d="m24.07 39.66v25.5l21.8 12.73v-25.51l-19.81-11.56z"/>
 <path d="m50 19.72-21.85 12.75 21.85 12.75 21.85-12.75z"/>
 <path d="m50 0.5c-0.6255 0-1.251 0.1627-1.811 0.4875l-39.57 22.94c-1.113 0.6457-1.799 1.835-1.799 3.122v45.9c2.081e-4 1.287 0.6855 2.477 1.799 3.122l39.57 22.94c1.12 0.6493 2.501 0.6493 3.621 0l39.57-22.94c1.113-0.6457 1.799-1.835 1.799-3.122v-45.9c-1.98e-4 -1.287-0.6855-2.477-1.799-3.122l-39.57-22.94c-0.5599-0.3247-1.185-0.4875-1.811-0.4875zm-0.7211 10.38a4.123 4.129 0 0 1 2.796 0.4975l30.05 17.53a4.123 4.129 0 0 1 0.979 0.8279 4.123 4.129 0 0 1 0.145 0.1611 4.123 4.129 0 0 1 0.6325 1.1 4.123 4.129 0 0 1 0.05841 0.1813 4.123 4.129 0 0 1 0.2296 1.338v35.02a4.123 4.129 0 0 1-2.047 3.57l-30.05 17.53a4.123 4.129 0 0 1-0.1048 0.03827 4.123 4.129 0 0 1-1.174 0.4331 4.123 4.129 0 0 1-0.1732 0.02409 4.123 4.129 0 0 1-1.295 0.0039 4.123 4.129 0 0 1-0.1028-0.02424 4.123 4.129 0 0 1-1.253-0.4532 4.123 4.129 0 0 1-0.03424-0.01606 4.123 4.129 0 0 1-0.01209-0.0062l-30.05-17.53a4.123 4.129 0 0 1-2.047-3.57v-35.06a4.123 4.129 0 0 1 0.08661-0.4895 4.123 4.129 0 0 1 0.1067-0.6103 4.123 4.129 0 0 1 0.419-0.9427 4.123 4.129 0 0 1 0.2719-0.4754 4.123 4.129 0 0 1 1.04-0.9427 4.123 4.129 0 0 1 0.1208-0.1088l30.05-17.53a4.123 4.129 0 0 1 1.354-0.4975z"/>
</svg>
